PathFileType	4	(X/Y/Z)	Patient4_TMGait_0pt4_02_right_44.trc.trc
DataRate	CameraRate	NumFrames	NumMarkers	Units	OrigDataRate	OrigDataStartFrame	OrigNumFrames
74.468085106383	74.468085106383	4	33	mm	74.468085106383	106	       141
Frame#	Time	Sacral			L.Shoulder			Chest			R.Shoulder			Neck			R.ASIS			L.ASIS			R.Thigh.Superior			R.Thigh.Lateral			R.Thigh.Inferior			R.Patella			L.Thigh.Superior			L.Thigh.Lateral			L.Thigh.Inferior			L.Patella			L.Shank.Superior			L.Shank.Lateral			L.Shank.Inferior			R.Shank.Superior			R.Shank.Lateral			R.Shank.Inferior			R.Heel			R.Midfoot.Superior			R.Midfoot.Lateral			R.Toe			L.Heel			L.Midfoot.Lateral			L.Midfoot.Superior			L.Toe			L.Elbow			L.Wrist			R.Elbow			R.Wrist			
		X1	Y1	Z1	X2	Y2	Z2	X3	Y3	Z3	X4	Y4	Z4	X5	Y5	Z5	X6	Y6	Z6	X7	Y7	Z7	X8	Y8	Z8	X9	Y9	Z9	X10	Y10	Z10	X11	Y11	Z11	X12	Y12	Z12	X13	Y13	Z13	X14	Y14	Z14	X15	Y15	Z15	X16	Y16	Z16	X17	Y17	Z17	X18	Y18	Z18	X19	Y19	Z19	X20	Y20	Z20	X21	Y21	Z21	X22	Y22	Z22	X23	Y23	Z23	X24	Y24	Z24	X25	Y25	Z25	X26	Y26	Z26	X27	Y27	Z27	X28	Y28	Z28	X29	Y29	Z29	X30	Y30	Z30	X31	Y31	Z31	X32	Y32	Z32	X33	Y33	Z33	

106	59.390000000000	810.649649255951	1009.373737315086	453.331707180276	994.175159154479	1444.420756224327	276.518743962758	1085.955215385531	1379.339829501909	445.087182473719	986.500552155997	1446.507259567038	613.250204868601	960.368113846848	1504.077371667895	433.593066798720	1036.404923831193	957.802751999563	581.665456962797	1034.847142517460	970.882535049922	308.129169766822	1126.140678342748	790.126976378305	552.320280593084	1093.184494802473	669.278642566075	631.583916694393	1180.373656747944	630.699865367172	550.786704964350	1208.619120467253	527.526875725990	577.027503038890	1072.414204838349	749.916530982188	340.727203498433	977.495122129734	638.292144332272	276.312394825313	1054.028390930895	557.393429914813	341.894150008468	1049.423676669660	490.059683464511	352.600928814147	1024.813344901582	418.403891061001	344.008919360810	936.322891821212	302.714872265765	295.354370537020	987.532883395569	192.999044412919	368.021865202528	1151.165642981596	442.285249426230	589.958882294066	1048.712807749592	374.210679257409	658.244952311253	1062.005955431729	263.441795012389	613.015418556332	885.178803860323	152.526305987515	598.062754975252	1064.119648837148	136.976430758153	631.981567990157	959.621341413368	109.663621741556	668.837980159332	1154.033386994953	42.471716351153	654.275931036475	861.697498909528	37.924217117808	417.466739685712	930.821688209512	35.409569919184	332.073720416009	1015.296667308764	96.255462398394	355.542680163601	1142.588725447507	44.313756489164	318.745751211078	1054.183697176010	1118.425508041167	115.249846990699	1279.925732748207	982.697212142719	116.976641371361	906.158758222988	1106.444552476859	727.247547790020	937.537838522881	846.319190218157	733.441310938692	
107	59.403428571429	809.547718848417	1009.951180530444	451.766865302044	996.001488552410	1444.490331543908	276.379709370347	1086.006918948466	1379.083329589933	445.755701958516	985.233130033905	1446.713049512730	612.954329140421	960.730822072418	1504.179679405234	433.293400819857	1034.199281695420	957.826526042857	582.077826501823	1034.829627078981	970.807626608372	308.414832471385	1123.255617715874	789.805199435325	553.276645463526	1089.563363448178	669.331796957345	632.894728367206	1176.365271953026	630.146055945661	552.220293910196	1205.243962836682	529.207592927575	578.459608415668	1069.983615517227	749.153903563346	341.661504997941	974.638055478116	638.289930492152	276.035839564013	1049.830993679800	556.833183007529	342.193132359928	1044.599514526917	489.693249605337	352.707441723489	1020.001522119855	418.222683481791	343.993922915050	931.470352631500	302.651797552009	295.100124052219	982.283889653925	192.880965733993	367.957410831366	1152.173224608423	442.807236258737	591.546293083571	1054.473364183465	368.990144742403	660.323788802554	1074.072104051635	259.291492210167	614.790521386548	904.405375863450	137.697890592280	600.171393336841	1083.839537096800	133.519576520974	633.862170200575	981.441041409696	100.201979610965	671.254614984612	1179.407492340924	45.345061082654	656.807644935612	856.287125483144	37.911794491113	417.432383188340	925.412086384989	35.368458061205	332.046457030646	1009.906590961202	96.202502000784	355.543336255986	1137.214693565570	44.208211126867	318.768276788047	1057.126419955261	1119.438382459014	114.384338738417	1287.945623547414	993.007230269050	116.779386998475	896.334838187075	1109.229695050515	726.706370037177	921.122602456058	848.648679280292	733.356990560241	
108	59.416857142857	808.503355806355	1010.448162762464	450.409130152047	997.786973492130	1444.373285581934	276.374018183331	1086.137559128596	1378.688891330055	446.496036191720	984.206541978947	1446.867260421824	612.774904476481	961.188988506268	1504.177727879997	433.084093301738	1032.073936916081	957.648381940657	582.650801291978	1034.757560124989	970.606940388324	308.850491571257	1119.894913607587	788.787694408146	554.526039371884	1084.893329989716	668.816946060845	634.365567387225	1171.384499459941	628.837028236350	553.988021536454	1200.702849085675	530.344928995374	580.008568424498	1067.601925963939	748.366527277492	342.548369074152	971.804130342500	638.261069730138	275.826111243578	1045.721837046886	556.263483410130	342.481259141696	1039.898719838931	489.314034631578	352.787518319534	1015.280809097527	418.019406039666	343.984682586506	926.655216521801	302.597426438739	294.856336324638	977.066116454100	192.744759326420	367.881045310281	1152.369729368975	443.098034733240	593.253540531287	1060.091346629532	363.556235728409	662.620993080908	1086.228797181929	255.396014018716	616.678124449019	924.847911135012	123.100765848561	602.445822698355	1104.067380076626	130.719300137226	635.767386081717	1004.270688620181	91.244436449951	673.732360017902	1205.097881076145	49.394708575670	659.183851829270	850.894553550975	37.901413281734	417.396845922323	920.006699660790	35.322473999514	332.022488211328	1004.522709160335	96.140569338878	355.542821543507	1131.847398001362	44.077745533538	318.789458771487	1059.887875050336	1120.103906272527	113.869861021614	1295.168582610577	1002.804847504336	116.874467291215	887.178370060628	1112.082007192169	726.237190265775	905.979720642878	851.205301891722	733.077115769902	
109	59.430285714286	807.537461505101	1010.867199489965	449.282611035616	999.496372408431	1444.095899756813	276.505618820862	1086.332779112651	1378.182513728002	447.305463494418	983.419415507323	1446.971952343477	612.725998772381	961.720150222353	1504.087477141987	432.976262075817	1030.054953870852	957.296298364819	583.379223677956	1034.638077983336	970.298292185258	309.434729983310	1116.067206970566	787.100245356018	556.070744408574	1079.233924694602	667.776662192391	635.979218824085	1165.506730326131	626.844426992076	556.046161585877	1195.092349542602	530.966572633724	581.625978408975	1065.294647165931	747.563772033841	343.378438898178	968.995417750673	638.212885730065	275.703093848498	1041.721823108000	555.685255880476	342.762978972959	1035.340030349290	488.920295748874	352.855059426605	1010.663132741220	417.796320373889	343.992836853306	921.877799581856	302.561443282217	294.633699859228	971.882929538143	192.593487746026	367.795179649986	1151.755017426174	443.228467779248	595.036288676936	1065.458011990403	358.107451664700	665.036095660439	1098.252509418080	251.960655196835	618.595062532471	946.165985799715	109.180502645809	604.734126454576	1124.443384229072	128.765840946623	637.600147246326	1027.699195505380	83.086252034628	676.111973868526	1230.615690954449	54.677676268361	661.285007328171	845.515936247070	37.896003042203	417.359408350831	914.604506644775	35.273595623459	332.000889830245	999.144768130157	96.070401341974	355.538549944255	1126.484962441994	43.923522870880	318.808041172028	1062.479035161466	1120.446104556289	113.720060402427	1301.611106116676	1011.989682738539	117.264785525128	878.796025485286	1114.921511403356	725.819597914497	892.162458620169	853.845399123833	732.619074336887	
